<svg xmlns="http://www.w3.org/2000/svg" viewBox="0 0 300 300" width="300" height="300">
  <!-- Left "L" shape -->
  <path d="M 32 50 
           C 32 50, 32 70, 55 70
           L 55 240
           L 110 240
           L 110 270
           L 32 270
           Q 32 270, 32 250
           Z" 
        fill="#000000"/>
  
  <!-- Right "P" shape with play button -->
  <path d="M 125 80
           L 125 270
           L 155 270
           L 155 200
           L 180 200
           C 220 200, 240 180, 260 150
           C 280 120, 280 100, 260 80
           C 240 60, 220 50, 180 50
           L 125 50
           Z
           M 155 80
           L 180 80
           C 210 80, 225 90, 235 110
           C 245 130, 245 145, 235 160
           C 225 175, 210 180, 180 180
           L 155 180
           Z" 
        fill="#000000"/>
  
  <!-- Play button triangle inside P -->
  <path d="M 165 100
           L 165 160
           L 215 130
           Z" 
        fill="#FFFFFF"/>
  
  <!-- Play button circle outline -->
  <circle cx="190" cy="130" r="45" fill="none" stroke="#FFFFFF" stroke-width="8"/>
</svg>